<svg xmlns="http://www.w3.org/2000/svg" viewBox="0 0 512 512" width="512" height="512">
  <!-- 派蒙简化版SVG图像 -->
  <g>
    <!-- 头部 -->
    <circle cx="256" cy="200" r="120" fill="#f9e9d6" />
    <!-- 脸 -->
    <circle cx="256" cy="200" r="100" fill="#ffffff" />
    <!-- 眼睛 -->
    <circle cx="220" cy="180" r="15" fill="#5e72eb" />
    <circle cx="292" cy="180" r="15" fill="#5e72eb" />
    <!-- 嘴巴 -->
    <path d="M236,220 Q256,240 276,220" stroke="#ff9999" stroke-width="4" fill="none" />
    <!-- 头发 -->
    <path d="M180,140 Q200,100 256,100 Q312,100 332,140" fill="#f9d770" />
    <!-- 身体 -->
    <path d="M200,280 Q256,320 312,280 L300,380 L212,380 Z" fill="#a7e9ff" />
    <!-- 星星装饰 -->
    <polygon points="256,50 270,80 300,85 278,110 283,140 256,125 229,140 234,110 212,85 242,80" fill="#ffde59" />
    <!-- 小翅膀 -->
    <path d="M150,250 Q130,220 150,190 Q180,210 150,250" fill="#f9e9d6" />
    <path d="M362,250 Q382,220 362,190 Q332,210 362,250" fill="#f9e9d6" />
  </g>
</svg>